<svg id="Layer_1" data-name="Layer 1" xmlns="http://www.w3.org/2000/svg" viewBox="0 0 352.25 80.92">
  <defs>
    <style>
      .cls-1 {
        fill: #f5ff16;
      }

      .cls-1, .cls-2, .cls-3, .cls-4 {
        opacity: 0.31;
      }

      .cls-2 {
        fill: #26ff79;
      }

      .cls-3 {
        fill: #69f4ff;
      }

      .cls-4 {
        fill: #ffb0f3;
      }
    </style>
  </defs>
  <title>logo2</title>
  <g>
    <g>
      <path class="cls-1" d="M326.5,0a23.36,23.36,0,0,0-21.15,13.68H331.5v8h-22v13h21v7H312.81a22,22,0,0,0,13.69,4.6A23.14,23.14,0,1,0,326.5,0Z"/>
      <g>
        <path class="cls-1" d="M328.35,41.68H309.5v18h15.27a25.25,25.25,0,0,0,4-13.61A30.4,30.4,0,0,0,328.35,41.68Z"/>
        <path class="cls-1" d="M301.5,67.68V21a25.47,25.47,0,0,0,1.75,50.88c5.13,0,9.89-1.18,13.89-4.18H301.5Z"/>
        <path class="cls-1" d="M309.5,21.74V34.68h16.17C322.34,27.68,316.5,23.53,309.5,21.74Z"/>
      </g>
      <g>
        <path class="cls-1" d="M301.5,13.76a33,33,0,0,0-13.74,26.4,33,33,0,0,0,13.74,26.4V13.76Z"/>
        <path class="cls-1" d="M320,8c-6.73,0-13,1.68-18.16,5.68H331.5v8h-22v13h21v7h-21v18h22v8H303.36A31.52,31.52,0,0,0,320,72.36,32.18,32.18,0,1,0,320,8Z"/>
      </g>
    </g>
    <g>
      <g>
        <path class="cls-2" d="M197.5,9.82l33.12,34.64a25.49,25.49,0,1,0-33.12,7.86V9.82Z"/>
        <path class="cls-2" d="M205.5,29.79V55.1a24.25,24.25,0,0,0,4.08.31,25.24,25.24,0,0,0,15.47-5.27Z"/>
      </g>
      <path class="cls-2" d="M217.41,42a19.66,19.66,0,0,0-5.88-.9,20.29,20.29,0,0,0-6,1V67.68h-8V47.4A19,19,0,1,0,230,55.11Z"/>
      <g>
        <path class="cls-2" d="M231.38,5.54a34.86,34.86,0,0,0-26.32,12L237.5,51.23V13.68h8V71.1l-40-41.31V65.25c7,6.81,15.67,11.06,25.78,11.06A35.38,35.38,0,0,0,231.38,5.54Z"/>
        <path class="cls-2" d="M197.5,30.69a35.46,35.46,0,0,0,0,20.47V30.69Z"/>
      </g>
    </g>
    <g>
      <g>
        <path class="cls-3" d="M113.5,67.68V40.06c-1-.06-1.23-0.1-1.88-0.1a20.14,20.14,0,1,0,0,40.28,20.77,20.77,0,0,0,18.67-12.57H113.5Z"/>
        <path class="cls-3" d="M121.5,42.71v17h10.34C131.82,52.68,127.5,46.2,121.5,42.71Z"/>
      </g>
      <path class="cls-3" d="M143.5,19.42v2.26h-22v13h21v7h-21v18h22v8h-30v-54h19.59a35.22,35.22,0,0,0-10.34-1.79A32.15,32.15,0,1,0,143.5,19.42Z"/>
      <g>
        <path class="cls-3" d="M113.5,29.31a28.71,28.71,0,0,0,0,18.89V29.31Z"/>
        <path class="cls-3" d="M140.7,10.14A31.17,31.17,0,0,0,127,13.68H143.5v8h-22v13h21v7h-21v18h22v7.64A28.31,28.31,0,0,0,169.38,38.8,28.64,28.64,0,0,0,140.7,10.14Z"/>
      </g>
    </g>
    <g>
      <path class="cls-4" d="M32.25,8.42A32.25,32.25,0,1,0,64.5,40.67,32.25,32.25,0,0,0,32.25,8.42ZM58.86,52.15A23.31,23.31,0,0,1,54,60.3a24.69,24.69,0,0,1-19.28,8.51,26.49,26.49,0,0,1-19.54-8.23A27.29,27.29,0,0,1,7.06,40.76a27.21,27.21,0,0,1,8.26-20,27.36,27.36,0,0,1,20.11-8.26,27.51,27.51,0,0,1,11.88,2.6A34.27,34.27,0,0,1,57.67,23.5l-5.84,5.59q-6.68-8.89-16.28-8.89a19.44,19.44,0,0,0-14.45,5.94,19.84,19.84,0,0,0-5.84,14.63,19.24,19.24,0,0,0,6.5,14.94Q27.86,61.15,35,61.15A16.14,16.14,0,0,0,45.82,57.3a16,16,0,0,0,5.38-9.62H37.5v-8h23v1.64A36.76,36.76,0,0,1,58.86,52.15Z"/>
      <g>
        <path class="cls-4" d="M45.44,39.68A25.08,25.08,0,0,0,25.5,30a25.44,25.44,0,0,0-8.09,1.28,20.83,20.83,0,0,0-2.14,9.51,19.22,19.22,0,0,0,6.5,14.93Q27.86,61.16,35,61.15a16.37,16.37,0,0,0,10.86-4.08,14.56,14.56,0,0,0,4.68-6.44,20.69,20.69,0,0,0-.86-3H37.5v-8h7.94Z"/>
        <path class="cls-4" d="M34.68,68.81a26.44,26.44,0,0,1-19.51-8.23A27.28,27.28,0,0,1,7,40.76c0-1.05.05-2.08,0.15-3.09A25.5,25.5,0,1,0,49.38,64.38,24.85,24.85,0,0,1,34.68,68.81Z"/>
      </g>
      <path class="cls-4" d="M56.15,21.84c0.51,0.53,1,1.08,1.52,1.66l-5.84,5.59a23.57,23.57,0,0,0-7.21-6.55,23.25,23.25,0,0,0-9.29,38.6A16.13,16.13,0,0,0,45.82,57.3a16,16,0,0,0,5.38-9.62H37.5v-8h23v1.64a36.76,36.76,0,0,1-1.64,10.83A23.31,23.31,0,0,1,54,60.3a25,25,0,0,1-9.1,6.57A23.25,23.25,0,1,0,56.15,21.84Z"/>
    </g>
  </g>
</svg>
