<svg id="Layer_1" data-name="Layer 1" xmlns="http://www.w3.org/2000/svg" viewBox="0 0 447.5 110">
  <defs>
    <style>
      .cls-1 {
        fill: #ffb7e8;
      }

      .cls-1, .cls-2, .cls-3, .cls-4 {
        opacity: 0.67;
      }

      .cls-2 {
        fill: #72ff7e;
      }

      .cls-3 {
        fill: #f5ff0d;
      }

      .cls-4 {
        fill: #9cf5ff;
      }
    </style>
  </defs>
  <title>logo</title>
  <path class="cls-1" d="M55,0a55,55,0,1,0,55,55A55,55,0,0,0,55,0ZM81,55.69a37.5,37.5,0,0,1-1.18,10.83,22.64,22.64,0,0,1-4.61,8.16A24.45,24.45,0,0,1,56,83.18,26.36,26.36,0,0,1,36.56,75a27.26,27.26,0,0,1-8.1-19.83,27.22,27.22,0,0,1,8.27-20,27.38,27.38,0,0,1,20.11-8.26,27.53,27.53,0,0,1,11.88,2.6A34.29,34.29,0,0,1,79.1,37.86l-5.84,5.59Q66.58,34.56,57,34.56A19.45,19.45,0,0,0,42.54,40.5,19.84,19.84,0,0,0,36.7,55.12a19.24,19.24,0,0,0,6.5,14.94q6.08,5.45,13.18,5.45a16.16,16.16,0,0,0,10.86-3.87c3.21-2.74,5-5.64,5.38-9.64H59V55H81v0.69Z"/>
  <path class="cls-2" d="M392.5,0a55,55,0,1,0,55,55A55,55,0,0,0,392.5,0ZM408,36H386V49h21v7H386V74h22v8H378V28h30v8Z"/>
  <path class="cls-3" d="M280,0a55,55,0,1,0,55,55A55,55,0,0,0,280,0Zm23,85.64L264,44.33V82h-9V24.36l40,41.41V28h8V85.64Z"/>
  <path class="cls-4" d="M167.5,0a55,55,0,1,0,55,55A55,55,0,0,0,167.5,0ZM183,36H161V49h22v7H161V74h22v8H153V28h30v8Z"/>
</svg>
