<svg id="Layer_1" data-name="Layer 1" xmlns="http://www.w3.org/2000/svg" viewBox="0 0 275.26 80.92">
  <defs>
    <style>
      .cls-1 {
        fill: #f5ff16;
      }

      .cls-1, .cls-2, .cls-3, .cls-4 {
        opacity: 0.31;
      }

      .cls-2 {
        fill: #26ff79;
      }

      .cls-3 {
        fill: #69f4ff;
      }

      .cls-4 {
        fill: #ffb0f3;
      }
    </style>
  </defs>
  <title>logo2narrow</title>
  <g>
    <path class="cls-1" d="M249.51,0a23.36,23.36,0,0,0-21.15,13.68H254.5v8h-22v13h21v7H235.82a22,22,0,0,0,13.69,4.6A23.14,23.14,0,1,0,249.51,0Z"/>
    <g>
      <path class="cls-1" d="M251.37,41.68H232.5v18h15.28a25.25,25.25,0,0,0,4-13.61A30.4,30.4,0,0,0,251.37,41.68Z"/>
      <path class="cls-1" d="M224.5,67.68V21a25.47,25.47,0,0,0,1.76,50.88c5.13,0,9.9-1.18,13.9-4.18H224.5Z"/>
      <path class="cls-1" d="M232.5,21.74V34.68h16.18C245.35,27.68,239.5,23.53,232.5,21.74Z"/>
    </g>
    <g>
      <path class="cls-1" d="M224.5,13.76a33,33,0,0,0-13.74,26.4,33,33,0,0,0,13.74,26.4V13.76Z"/>
      <path class="cls-1" d="M243,8c-6.73,0-13,1.68-18.16,5.68H254.5v8h-22v13h21v7h-21v18h22v8H226.37A31.52,31.52,0,0,0,243,72.36,32.18,32.18,0,1,0,243,8Z"/>
    </g>
  </g>
  <g>
    <g>
      <path class="cls-2" d="M147.5,9.82l33.11,34.64a25.5,25.5,0,1,0-33.11,7.86V9.82Z"/>
      <path class="cls-2" d="M155.5,29.79V55.1a24.14,24.14,0,0,0,4.07.31A25.25,25.25,0,0,0,175,50.14Z"/>
    </g>
    <path class="cls-2" d="M167.39,42a19.6,19.6,0,0,0-5.87-.9,20.23,20.23,0,0,0-6,1V67.68h-8V47.4a19,19,0,1,0,32.45,7.71Z"/>
    <g>
      <path class="cls-2" d="M181.37,5.54a34.84,34.84,0,0,0-26.31,12L187.5,51.23V13.68h8V71.1l-40-41.31V65.25c7,6.81,15.66,11.06,25.77,11.06A35.38,35.38,0,1,0,181.37,5.54Z"/>
      <path class="cls-2" d="M147.5,30.69a35.46,35.46,0,0,0,0,20.47V30.69Z"/>
    </g>
  </g>
  <g>
    <g>
      <path class="cls-3" d="M88.5,67.68V40.06c-1-.06-1-0.1-1.63-0.1a20.14,20.14,0,0,0,.23,40.28,20.86,20.86,0,0,0,18.73-12.57H88.5Z"/>
      <path class="cls-3" d="M96.5,42.71v17h10.84C107.33,52.68,102.5,46.2,96.5,42.71Z"/>
    </g>
    <path class="cls-3" d="M118.5,19.42v2.26h-22v13h21v7h-21v18h22v8h-30v-54h20.1a35.22,35.22,0,0,0-10.34-1.79A32.56,32.56,0,1,0,118.5,19.42Z"/>
    <g>
      <path class="cls-3" d="M88.5,29.31a28.71,28.71,0,0,0,0,18.89V29.31Z"/>
      <path class="cls-3" d="M116.21,10.14a31.17,31.17,0,0,0-13.66,3.54h16v8h-22v13h21v7h-21v18h22v7.64A28.64,28.64,0,0,0,116.21,10.14Z"/>
    </g>
  </g>
  <g>
    <path class="cls-4" d="M32.25,8.42A32.25,32.25,0,1,0,64.5,40.67,32.25,32.25,0,0,0,32.25,8.42ZM58.86,52.15A23.31,23.31,0,0,1,54,60.3a24.69,24.69,0,0,1-19.28,8.51,26.49,26.49,0,0,1-19.54-8.23A27.29,27.29,0,0,1,7.06,40.76a27.21,27.21,0,0,1,8.26-20,27.36,27.36,0,0,1,20.11-8.26,27.51,27.51,0,0,1,11.88,2.6A34.27,34.27,0,0,1,57.67,23.5l-5.84,5.59q-6.68-8.89-16.28-8.89a19.44,19.44,0,0,0-14.45,5.94,19.84,19.84,0,0,0-5.84,14.63,19.24,19.24,0,0,0,6.5,14.94Q27.86,61.15,35,61.15A16.14,16.14,0,0,0,45.82,57.3a16,16,0,0,0,5.38-9.62H37.5v-8h23v1.64A36.76,36.76,0,0,1,58.86,52.15Z"/>
    <g>
      <path class="cls-4" d="M45.44,39.68A25.08,25.08,0,0,0,25.5,30a25.44,25.44,0,0,0-8.09,1.28,20.83,20.83,0,0,0-2.14,9.51,19.22,19.22,0,0,0,6.5,14.93Q27.86,61.16,35,61.15a16.37,16.37,0,0,0,10.86-4.08,14.56,14.56,0,0,0,4.68-6.44,20.69,20.69,0,0,0-.86-3H37.5v-8h7.94Z"/>
      <path class="cls-4" d="M34.68,68.81a26.44,26.44,0,0,1-19.51-8.23A27.28,27.28,0,0,1,7,40.76c0-1.05.05-2.08,0.15-3.09A25.5,25.5,0,1,0,49.38,64.38,24.85,24.85,0,0,1,34.68,68.81Z"/>
    </g>
    <path class="cls-4" d="M56.15,21.84c0.51,0.53,1,1.08,1.52,1.66l-5.84,5.59a23.57,23.57,0,0,0-7.21-6.55,23.25,23.25,0,0,0-9.29,38.6A16.13,16.13,0,0,0,45.82,57.3a16,16,0,0,0,5.38-9.62H37.5v-8h23v1.64a36.76,36.76,0,0,1-1.64,10.83A23.31,23.31,0,0,1,54,60.3a25,25,0,0,1-9.1,6.57A23.25,23.25,0,1,0,56.15,21.84Z"/>
  </g>
</svg>
